<?xml version="1.0" encoding="UTF-8" standalone="no"?>
<!-- Created with Inkscape (http://www.inkscape.org/) -->

<svg
   width="512"
   height="512"
   viewBox="0 0 512 512"
   version="1.1"
   id="svg1"
   xml:space="preserve"
   inkscape:version="1.3.2 (091e20e, 2023-11-25, custom)"
   sodipodi:docname="icon.svg"
   inkscape:export-filename="..\web\favicon.png"
   inkscape:export-xdpi="24"
   inkscape:export-ydpi="24"
   xmlns:inkscape="http://www.inkscape.org/namespaces/inkscape"
   xmlns:sodipodi="http://sodipodi.sourceforge.net/DTD/sodipodi-0.dtd"
   xmlns="http://www.w3.org/2000/svg"
   xmlns:svg="http://www.w3.org/2000/svg"><sodipodi:namedview
     id="namedview1"
     pagecolor="#ffffff"
     bordercolor="#111111"
     borderopacity="1"
     inkscape:showpageshadow="0"
     inkscape:pageopacity="0"
     inkscape:pagecheckerboard="1"
     inkscape:deskcolor="#d1d1d1"
     inkscape:document-units="px"
     inkscape:zoom="0.67704826"
     inkscape:cx="397.31289"
     inkscape:cy="324.93991"
     inkscape:window-width="1920"
     inkscape:window-height="974"
     inkscape:window-x="-9"
     inkscape:window-y="-9"
     inkscape:window-maximized="1"
     inkscape:current-layer="layer1" /><defs
     id="defs1"><style
       id="style1">.cls-1{fill:#1fb7f8;}</style></defs><g
     inkscape:label="Layer 1"
     inkscape:groupmode="layer"
     id="layer1"><g
       id="g2"
       transform="matrix(1.4875089,0,0,1.4875089,63.199095,141.72213)"
       style="fill:#ffffff;fill-opacity:1"><path
         class="cls-1"
         d="m 132.5,52.17 c -4.97,0 -9,4.03 -9,9 0,4.97 4.03,9 9,9 4.97,0 9,-4.03 9,-9 0,-4.97 -4.03,-9 -9,-9 z"
         id="path1"
         style="fill:#ffffff;fill-opacity:1" /><path
         class="cls-1"
         d="M 264.14,30.92 247.13,36.25 188.2,54.73 C 179.63,43.64 168.8,34.33 156.15,27.48 l -0.2,-0.11 -0.2,-0.1 -5.4,-2.7 -0.22,-0.11 -0.22,-0.1 c -13.76,-6.28 -28.68,-9.47 -44.34,-9.47 -11.45,0 -22.5,1.71 -32.99,5.08 0.16,-1.03 0.23,-2.1 0.18,-3.2 C 72.4,9.48 60.95,-0.01 60.95,-0.01 c 0,0 -4.76,4.81 -7.75,10.17 C 44.72,5.78 28.95,7.21 28.95,7.21 c 0,0 0.04,19.81 7.23,26.36 1.43,1.31 2.99,2.36 4.6,3.18 C 20.92,52.27 7.39,74.71 2.87,100.39 L 0,116.68 h 38.82 c -2.66,11.48 4.53,23.97 17.88,30.45 0.38,0.19 0.84,0.4 1.34,0.61 2.86,1.25 5.79,2.25 8.73,2.97 7.99,1.96 15.93,2.95 23.62,2.95 24.76,0 43.04,-10.41 47.71,-27.17 0.89,-3.18 1.24,-6.48 1.1,-9.81 h 71.9 l -2.87,-16.29 c -0.96,-5.47 -2.35,-10.8 -4.1,-15.94 l 50.45,-32.19 15.03,-9.59 c 6.44,-4.11 1.81,-14.03 -5.47,-11.75 z m -138.8,87.43 c 0,0.42 -0.03,0.83 -0.06,1.24 0,0.1 -0.02,0.21 -0.03,0.31 -0.04,0.38 -0.09,0.76 -0.15,1.13 -0.02,0.11 -0.03,0.22 -0.05,0.33 -0.09,0.47 -0.19,0.94 -0.32,1.39 0,0 0,0.01 0,0.02 -0.11,0.4 -0.25,0.8 -0.39,1.19 -0.04,0.12 -0.09,0.24 -0.14,0.36 -0.12,0.3 -0.24,0.59 -0.38,0.88 -0.05,0.11 -0.1,0.21 -0.15,0.32 -0.18,0.38 -0.38,0.75 -0.59,1.11 -0.04,0.06 -0.08,0.12 -0.12,0.19 -0.18,0.3 -0.38,0.6 -0.58,0.9 -0.07,0.11 -0.15,0.22 -0.23,0.32 -0.2,0.27 -0.4,0.54 -0.61,0.8 -0.06,0.08 -0.13,0.16 -0.19,0.24 -0.28,0.33 -0.57,0.65 -0.87,0.97 -0.07,0.08 -0.15,0.15 -0.22,0.22 -0.24,0.25 -0.49,0.49 -0.75,0.73 -0.1,0.09 -0.2,0.19 -0.31,0.28 -0.29,0.25 -0.58,0.5 -0.88,0.74 -0.06,0.05 -0.12,0.1 -0.17,0.14 -0.36,0.28 -0.74,0.56 -1.12,0.83 -0.11,0.07 -0.22,0.15 -0.32,0.22 -0.3,0.2 -0.61,0.4 -0.92,0.59 -0.12,0.07 -0.24,0.15 -0.36,0.22 -0.42,0.25 -0.84,0.49 -1.28,0.73 0,0 0,0 -0.01,0 -0.44,0.23 -0.89,0.46 -1.35,0.67 -0.14,0.06 -0.27,0.13 -0.41,0.19 -0.36,0.16 -0.72,0.32 -1.09,0.48 -0.13,0.05 -0.26,0.11 -0.39,0.16 -0.49,0.2 -0.98,0.39 -1.49,0.57 -0.08,0.03 -0.16,0.05 -0.24,0.08 -0.44,0.15 -0.88,0.3 -1.33,0.44 -0.16,0.05 -0.32,0.1 -0.48,0.15 -0.42,0.13 -0.85,0.25 -1.28,0.37 -0.12,0.03 -0.25,0.07 -0.37,0.1 -0.55,0.14 -1.11,0.28 -1.67,0.4 -0.13,0.03 -0.26,0.06 -0.39,0.08 -0.45,0.1 -0.91,0.19 -1.37,0.28 -0.18,0.03 -0.35,0.07 -0.53,0.1 -0.5,0.09 -1.01,0.17 -1.52,0.25 -0.1,0.01 -0.19,0.03 -0.29,0.04 -0.6,0.09 -1.21,0.16 -1.83,0.23 -0.17,0.02 -0.34,0.04 -0.5,0.05 -0.48,0.05 -0.96,0.1 -1.44,0.14 -0.18,0.02 -0.37,0.03 -0.55,0.04 -1.28,0.09 -2.58,0.15 -3.91,0.18 -0.19,0 -0.38,0 -0.58,0 -0.23,0 -0.46,0 -0.69,0 -0.19,0 -0.38,0 -0.56,0 -0.43,0 -0.86,-0.01 -1.29,-0.02 -0.35,0 -0.71,-0.02 -1.07,-0.03 -0.44,-0.02 -0.88,-0.04 -1.31,-0.06 -0.36,-0.02 -0.72,-0.04 -1.08,-0.07 -0.45,-0.03 -0.9,-0.07 -1.35,-0.11 -0.36,-0.03 -0.72,-0.06 -1.08,-0.1 -0.46,-0.04 -0.92,-0.1 -1.38,-0.15 -0.36,-0.04 -0.72,-0.08 -1.08,-0.13 -0.48,-0.06 -0.95,-0.13 -1.43,-0.2 -0.35,-0.05 -0.71,-0.1 -1.06,-0.15 -0.5,-0.08 -1,-0.17 -1.51,-0.25 -0.34,-0.06 -0.67,-0.11 -1.01,-0.18 -0.55,-0.1 -1.11,-0.22 -1.67,-0.33 -0.29,-0.06 -0.58,-0.11 -0.87,-0.18 -0.81,-0.17 -1.62,-0.36 -2.43,-0.56 -0.04,0 -0.08,-0.02 -0.12,-0.03 -0.55,-0.14 -1.1,-0.28 -1.65,-0.44 -0.55,-0.16 -1.09,-0.33 -1.63,-0.52 -1.08,-0.37 -2.14,-0.78 -3.19,-1.24 -0.07,-0.03 -0.13,-0.06 -0.19,-0.09 -0.23,-0.1 -0.46,-0.21 -0.65,-0.3 -7.94,-3.85 -11.97,-10.63 -10.18,-15.64 0.08,-0.23 0.17,-0.45 0.27,-0.66 0.01,-0.02 0.02,-0.04 0.03,-0.06 0.09,-0.19 0.19,-0.37 0.3,-0.54 0,0 0.01,-0.02 0.02,-0.02 3.43,-5.54 13.62,-3.92 7.45,-6.72 -6.29,-2.86 -9.66,-6.57 -10.64,-10.13 0,0 0,-0.01 0,-0.02 -0.08,-0.31 -0.15,-0.62 -0.2,-0.93 0,-0.03 0,-0.05 0,-0.08 -0.04,-0.29 -0.07,-0.58 -0.08,-0.86 0,-0.06 0,-0.11 0,-0.16 0,-0.26 0,-0.51 0.02,-0.76 0,-0.09 0.03,-0.19 0.04,-0.28 0.03,-0.21 0.05,-0.43 0.09,-0.64 0.03,-0.15 0.08,-0.29 0.12,-0.44 0.04,-0.15 0.08,-0.31 0.13,-0.46 0.1,-0.29 0.21,-0.57 0.35,-0.85 0,-0.01 0,-0.02 0.01,-0.04 0.15,-0.31 0.33,-0.6 0.52,-0.86 0.06,-0.09 0.14,-0.16 0.21,-0.25 0.14,-0.17 0.28,-0.34 0.44,-0.49 0.1,-0.09 0.2,-0.17 0.31,-0.25 0.15,-0.12 0.3,-0.25 0.47,-0.36 0.12,-0.08 0.25,-0.15 0.38,-0.22 0.17,-0.09 0.33,-0.19 0.51,-0.27 0.14,-0.06 0.29,-0.12 0.43,-0.17 0.18,-0.07 0.37,-0.14 0.56,-0.2 0.16,-0.05 0.32,-0.09 0.49,-0.13 0.2,-0.05 0.4,-0.1 0.61,-0.14 0.17,-0.03 0.35,-0.06 0.53,-0.09 0.21,-0.03 0.43,-0.06 0.66,-0.08 0.19,-0.02 0.38,-0.03 0.57,-0.04 0.23,-0.01 0.46,-0.02 0.7,-0.03 0.11,0 0.22,-0.01 0.34,-0.01 0.1,0 0.2,0 0.3,0 0.18,0 0.36,0 0.55,0.02 0.24,0 0.48,0.02 0.73,0.04 0.19,0.01 0.39,0.03 0.58,0.05 0.25,0.02 0.5,0.05 0.75,0.08 0.2,0.02 0.4,0.05 0.61,0.07 0.26,0.04 0.52,0.08 0.79,0.12 0.2,0.03 0.41,0.06 0.61,0.1 0.27,0.05 0.55,0.1 0.83,0.16 0.2,0.04 0.4,0.08 0.61,0.12 0.3,0.06 0.6,0.13 0.9,0.2 0.19,0.04 0.38,0.08 0.57,0.13 0.35,0.08 0.69,0.17 1.04,0.26 0.15,0.04 0.3,0.07 0.46,0.12 0.51,0.13 1.02,0.27 1.53,0.42 0.33,0.09 0.62,0.17 0.9,0.25 0.08,0.02 0.16,0.04 0.24,0.06 0.18,0.04 0.36,0.09 0.52,0.12 0.08,0.02 0.16,0.03 0.24,0.05 0.14,0.03 0.27,0.05 0.39,0.07 0.07,0 0.13,0.02 0.2,0.02 0.11,0.01 0.21,0.02 0.31,0.02 0.06,0 0.11,0 0.16,0 0.05,0 0.09,0 0.13,0 0.06,0 0.12,-0.01 0.17,-0.02 0.04,0 0.07,-0.02 0.1,-0.02 0.05,-0.01 0.09,-0.03 0.12,-0.05 0.02,-0.01 0.05,-0.02 0.07,-0.04 0.04,-0.03 0.06,-0.06 0.09,-0.09 0.01,-0.01 0.03,-0.02 0.04,-0.04 0.03,-0.05 0.05,-0.1 0.06,-0.17 0,-0.01 0,-0.03 0,-0.05 0,-0.05 0,-0.1 0,-0.16 0,-0.03 0,-0.06 -0.01,-0.09 0,-0.05 -0.02,-0.1 -0.03,-0.16 0,-0.03 -0.02,-0.07 -0.03,-0.11 C 72.8,93.15 72.79,93.1 72.76,93.03 72.75,92.99 72.73,92.95 72.72,92.91 72.7,92.84 72.67,92.78 72.64,92.71 72.62,92.67 72.61,92.63 72.59,92.59 72.55,92.51 72.51,92.42 72.47,92.33 72.46,92.3 72.44,92.27 72.43,92.24 72.37,92.12 72.31,91.99 72.25,91.86 72.19,91.74 72.13,91.61 72.07,91.48 72.05,91.43 72.03,91.39 72,91.34 c -0.05,-0.1 -0.1,-0.21 -0.15,-0.31 -0.03,-0.06 -0.05,-0.11 -0.08,-0.17 -0.05,-0.1 -0.09,-0.2 -0.14,-0.3 -0.03,-0.06 -0.05,-0.12 -0.08,-0.18 -0.05,-0.11 -0.09,-0.22 -0.14,-0.33 -0.02,-0.06 -0.05,-0.11 -0.07,-0.17 -0.06,-0.14 -0.11,-0.27 -0.16,-0.42 -0.01,-0.03 -0.03,-0.07 -0.04,-0.1 -0.06,-0.17 -0.12,-0.35 -0.18,-0.53 -0.01,-0.05 -0.03,-0.1 -0.04,-0.14 -0.04,-0.13 -0.08,-0.27 -0.12,-0.41 -0.02,-0.07 -0.03,-0.13 -0.05,-0.2 -0.03,-0.12 -0.06,-0.25 -0.08,-0.37 -0.01,-0.07 -0.03,-0.15 -0.04,-0.22 -0.02,-0.12 -0.04,-0.25 -0.06,-0.37 0,-0.07 -0.02,-0.15 -0.03,-0.22 -0.01,-0.13 -0.02,-0.27 -0.03,-0.4 0,-0.07 0,-0.13 -0.01,-0.2 0,-0.18 0,-0.36 0,-0.55 0,-0.02 0,-0.04 0,-0.06 0.01,-0.21 0.04,-0.41 0.07,-0.62 0,-0.06 0.02,-0.12 0.03,-0.18 0.03,-0.15 0.06,-0.3 0.09,-0.45 0.02,-0.08 0.04,-0.15 0.07,-0.23 0.04,-0.14 0.08,-0.27 0.13,-0.41 0.03,-0.08 0.06,-0.16 0.09,-0.25 0.05,-0.13 0.12,-0.27 0.18,-0.41 0.04,-0.08 0.08,-0.16 0.12,-0.24 0.08,-0.15 0.16,-0.29 0.25,-0.44 0.04,-0.07 0.08,-0.14 0.12,-0.21 0.14,-0.22 0.29,-0.43 0.46,-0.65 0.24,-0.3 0.5,-0.56 0.77,-0.8 0.08,-0.07 0.16,-0.13 0.24,-0.2 0.22,-0.18 0.45,-0.34 0.7,-0.48 0.08,-0.05 0.15,-0.1 0.23,-0.14 0.32,-0.17 0.65,-0.33 1,-0.45 0.07,-0.02 0.14,-0.04 0.21,-0.06 0.29,-0.1 0.59,-0.18 0.91,-0.25 0.11,-0.02 0.22,-0.05 0.34,-0.07 0.32,-0.06 0.66,-0.11 1,-0.14 0.07,0 0.13,-0.02 0.2,-0.02 0.35,-0.03 0.71,-0.04 1.08,-0.04 0.04,0 0.09,0 0.13,0 0.55,0 1.11,0.03 1.69,0.09 0.11,0.01 0.22,0.03 0.32,0.04 0.48,0.06 0.97,0.12 1.46,0.21 0.2,0.04 0.4,0.08 0.6,0.11 0.42,0.08 0.84,0.17 1.27,0.27 0.2,0.05 0.4,0.09 0.61,0.15 0.49,0.12 0.98,0.26 1.47,0.4 0.12,0.04 0.24,0.07 0.36,0.1 0.61,0.18 1.22,0.38 1.82,0.58 0.17,0.06 0.34,0.12 0.51,0.18 0.44,0.15 0.88,0.31 1.32,0.47 0.2,0.07 0.4,0.15 0.61,0.22 0.42,0.16 0.83,0.32 1.24,0.48 0.17,0.06 0.33,0.13 0.5,0.19 0.55,0.22 1.1,0.44 1.62,0.65 0.69,0.29 1.38,0.59 2.05,0.9 0.2,0.09 0.4,0.19 0.6,0.28 0.47,0.22 0.93,0.44 1.39,0.66 0.24,0.12 0.48,0.24 0.71,0.37 0.41,0.21 0.82,0.42 1.22,0.63 0.25,0.13 0.5,0.27 0.75,0.41 0.38,0.21 0.76,0.42 1.13,0.63 0.25,0.15 0.5,0.3 0.75,0.45 0.36,0.21 0.72,0.43 1.07,0.64 0.25,0.15 0.49,0.31 0.73,0.46 0.35,0.22 0.69,0.44 1.03,0.67 0.24,0.16 0.47,0.32 0.71,0.48 0.33,0.23 0.67,0.46 0.99,0.69 0.23,0.16 0.45,0.32 0.67,0.49 0.33,0.24 0.65,0.48 0.96,0.72 0.21,0.16 0.42,0.33 0.63,0.49 0.32,0.25 0.63,0.5 0.94,0.76 0.2,0.16 0.4,0.32 0.59,0.49 0.31,0.26 0.62,0.53 0.92,0.79 0.18,0.16 0.36,0.32 0.54,0.48 0.31,0.28 0.61,0.56 0.91,0.84 0.16,0.15 0.32,0.3 0.48,0.46 0.31,0.3 0.61,0.6 0.91,0.91 0.14,0.14 0.28,0.28 0.41,0.42 0.32,0.33 0.63,0.67 0.93,1 0.1,0.11 0.21,0.23 0.31,0.34 0.35,0.39 0.69,0.79 1.02,1.19 0.05,0.06 0.1,0.12 0.15,0.17 4.48,5.45 7.14,11.26 7.54,16.71 v 0 c 0.04,0.5 0.05,0.99 0.05,1.48 0,0.07 0,0.13 0,0.2 z m 10.45,-15.55 c -1.48,-3.31 -3.42,-6.59 -5.84,-9.78 -7.11,-9.4 -17.88,-17.46 -30.33,-22.68 L 99.57,70.32 99.52,70.3 c -6.27,-2.57 -13.63,-5.2 -20.79,-5.2 -7.16,0 -13.51,2.82 -17.55,7.94 -1.21,1.53 -2.19,3.16 -2.93,4.86 H 58.2 c -4.42,0 -15.22,1.11 -20.21,11.4 -2.05,4.22 -2.62,8.91 -1.74,13.51 H 16.54 C 21.29,75.85 37.73,52.61 61.55,39.7 L 66.97,37 c 11.93,-5.45 24.91,-8.21 38.58,-8.21 13.67,0 26.65,2.77 38.58,8.21 l 5.4,2.7 c 23.83,12.9 40.28,36.15 45.03,63.11 h -58.77 z"
         id="path2"
         style="fill:#ffffff;fill-opacity:1" /></g></g></svg>
